PathFileType	4	(X/Y/Z)	C:/Users/beibeiliu/ov580/test_trc/User3\sequence.45_training_dense_right.trc
DataRate	CameraRate	NumFrames	NumMarkers	Units	OrigDataRate	OrigDataStartFrame	OrigNumFrames
120	120	10	19	mm	120	27	107
Frame#	Time	ThumbCMC			ThumbMCP			ThumbIP			ThumbTip			IndexMCP			IndexPIP			IndexTip			MiddleMCP			MiddlePIP			MiddleTip			RingMCP			RingPIP			RingTip			PinkyMCP			PinkyPIP			PinkyTip			BackHand1			BackHand2			BackHand3	
		X0	Y0	Z0	X1	Y1	Z1	X2	Y2	Z2	X3	Y3	Z3	X4	Y4	Z4	X5	Y5	Z5	X6	Y6	Z6	X7	Y7	Z7	X8	Y8	Z8	X9	Y9	Z9	X10	Y10	Z10	X11	Y11	Z11	X12	Y12	Z12	X13	Y13	Z13	X14	Y14	Z14	X15	Y15	Z15	X16	Y16	Z16	X17	Y17	Z17	X18	Y18	Z18	
26	0.216667	216.388	64.5458	6.65423	197.967	67.1474	-16.882	181.805	71.5949	-41.3041	170.204	68.7902	-63.145	241.914	54.7517	-61.3911	239.814	52.0443	-86.921	235.113	54.7907	-113.837	253.575	30.8155	-63.7489	249.675	24.2512	-95.062	242.423	18.6529	-122.79	244.047	10.4522	-60.8994	229.514	2.99595	-83.8916	206.769	-7.96351	-98.6062	240.072	-11.4906	-43.8053	224.26	-13.2156	-62.8462	200.975	-17.4011	-71.0121	258.721	19.1344	-5.39481	258.799	17.6636	25.0049	253.622	51.2819	8.31561	
27	0.225	202.135	52.9696	15.0908	183.843	48.1056	-11.0185	171.617	42.876	-42.168	162.804	33.8824	-59.4823	241.763	47.8414	-54.5274	239.748	47.8493	-80.2343	234.542	43.4998	-108.237	260.322	30.3303	-53.8165	262.638	21.3017	-83.4146	251.012	9.43015	-115.209	260.142	5.45764	-43.7918	249.828	-6.5139	-70.9912	229.959	-28.2962	-82.818	261.076	-14.2245	-29.2396	251.604	-30.8553	-46.5323	224.666	-36.8869	-58.9342	263.818	22.6214	5.28968	258.562	26.9751	39.1539	243.87	50.5228	13.3471	
28	0.233333	226.015	33.5682	14.2406	214.706	29.2833	-16.9552	208.238	23.3704	-42.2109	207.273	9.41223	-64.8374	280.98	32.0015	-41.6729	284.578	29.5292	-68.636	273.903	14.828	-96.8794	297.887	10.0463	-36.1028	302.331	1.71143	-64.9933	286.612	-19.0311	-93.239	291.989	-15.759	-30.1143	285.084	-31.9613	-53.5272	258.656	-45.2911	-62.2664	287.138	-34.8519	-12.8711	276.733	-49.0744	-33.782	250.97	-55.6221	-40.0386	283.781	3.97825	24.3742	272.053	4.58656	54.0482	264.02	32.8417	23.9938	
29	0.241667	263.515	13.7863	24.6571	261.753	11.1389	-8.99138	265.71	9.60503	-41.4207	273.415	-10.5456	-59.395	332.046	-2.26009	-15.5461	339.505	-3.59852	-42.8326	321.114	-12.2921	-66.7775	339.283	-25.451	-10.4511	341.863	-34.3919	-41.8244	311.174	-39.1876	-66.2618	319.834	-47.0807	-9.06384	307.182	-55.0417	-38.305	274.895	-50.6097	-41.0927	306.476	-61.8466	1.23214	291.08	-67.3659	-23.8823	264.549	-60.2282	-23.9997	306.38	-31.515	42.5345	286.509	-29.1823	68.9602	292.473	4.52008	45.1851	
30	0.25	280.902	8.46293	30.8351	286.595	6.41291	-2.06061	294.702	5.61086	-28.749	303.054	-9.98837	-47.2267	349.839	-5.56389	4.24968	358.063	-10.6831	-26.4257	335.557	-10.3366	-46.5978	352.181	-33.0884	2.29293	353.003	-35.8035	-31.5565	316.758	-32.5698	-43.441	329.914	-51.6271	-5.33311	313.894	-48.2495	-31.8265	280.392	-39.2615	-22.4072	313.817	-62.8111	0.948637	298.286	-55.974	-20.7329	274.006	-45.0025	-14.317	310.762	-45.0247	50.4182	288.357	-41.3106	69.59	302.789	-8.6616	58.2268	
31	0.258333	262.385	26.549	33.7737	271.393	31.0947	-2.21777	280.319	32.9189	-27.608	291.591	16.7585	-48.7447	331.647	25.2214	4.82922	336.043	33.1625	-29.1508	307.139	26.508	-42.4258	339.004	2.61753	-4.79673	333.347	4.51357	-36.8808	291.391	5.75949	-38.5354	316.814	-15.6093	-13.975	295.412	-14.0473	-35.4467	268.085	-7.25714	-22.3275	303.796	-33.7981	-8.89055	285.141	-24.6753	-25.9974	260.742	-16.7241	-11.0332	301.665	-21.483	43.1087	277.841	-24.4969	66.2102	288.33	6.29155	56.1916	
32	0.266667	213.355	50.023	31.6068	216.374	60.014	-6.35711	223.307	64.2254	-35.4353	237.282	45.4254	-53.2616	273.848	72.4036	-10.8508	266.014	82.7061	-45.4733	242.355	66.5272	-51.1833	284.474	53.4428	-20.8006	272.322	57.1096	-54.0319	239.654	35.3843	-49.096	273.26	27.3753	-28.3088	249.741	23.1231	-48.2003	225.024	13.3716	-25.2775	268.529	7.76897	-22.4159	244.387	3.11435	-38.2828	224.17	2.61303	-13.1516	271.97	13.7191	29.6107	255.214	1.24255	50.8572	252.893	38.812	42.7348	
33	0.275	158.283	50.0598	26.0613	142.859	54.4983	-4.64957	143.295	51.5942	-36.4136	161.658	37.3865	-57.9533	187.356	88.2724	-36.5157	176.52	87.9562	-66.0861	161.983	59.5433	-71.3842	209.309	68.7752	-44.3632	193.971	65.2091	-76.1461	171.013	34.7812	-72.7735	208.579	40.4066	-49.249	189.687	21.2384	-60.4166	177.791	5.90999	-34.6666	214.488	22.9831	-38.883	194.151	5.58614	-46.1224	182.738	-3.97175	-15.4705	223.738	44.6395	11.7462	218.728	33.6865	37.0683	193.391	59.9755	29.1712	
34	0.283333	124.905	30.3516	25.0863	101.417	17.3786	2.98351	95.6861	3.90714	-18.3943	104.057	-13.37	-43.1177	129.374	46.2553	-48.8878	108.312	37.9884	-76.5046	101.499	11.5809	-82.7913	146.744	40.8598	-60.1701	137.483	26.6337	-85.7505	125.781	-11.7297	-88.8619	161.616	12.8598	-53.0798	153.243	-14.3665	-58.6653	144.645	-28.5673	-25.948	177.2	0.805636	-40.713	165.549	-23.9998	-38.1316	158.647	-25.9055	-9.18197	183.311	38.683	-2.90705	187.045	40.5032	26.4404	152.482	51.0272	12.4615	
35	0.291667	118.842	10.3022	37.2386	96.5862	-15.6416	21.8895	81.9232	-35.4846	10.8151	84.8282	-55.8023	-5.55893	105.973	0.14904	-41.9859	96.1894	-16.2158	-60.0432	82.8653	-38.6657	-70.2145	131.913	-6.07983	-54.532	122.957	-26.0948	-74.1133	116.726	-58.0672	-84.0389	154.894	-23.6653	-40.8345	144.341	-55.0491	-38.9801	144.872	-65.3286	-5.6066	169.832	-30.394	-30.0716	163.163	-52.3551	-22.6903	156.177	-51.3589	8.0884	167.093	21.2454	-4.63096	177.436	31.5545	24.6844	142.417	30.9989	12.1765	
